<svg xmlns="http://www.w3.org/2000/svg" viewBox="0 0 720 520" role="img" aria-labelledby="title desc">
  <title id="title">Driving study road illustration</title>
  <desc id="desc">Study cards, road signs, and a licence pathway arranged around a road.</desc>
  <rect width="720" height="520" rx="28" fill="#f8fbf9"/>
  <path d="M64 410C178 344 248 305 323 232c72-70 132-118 275-139" fill="none" stroke="#d2ded9" stroke-width="82" stroke-linecap="round"/>
  <path d="M64 410C178 344 248 305 323 232c72-70 132-118 275-139" fill="none" stroke="#31423d" stroke-width="52" stroke-linecap="round"/>
  <path d="M98 391c92-54 158-94 219-153 75-73 137-130 253-151" fill="none" stroke="#f2c94c" stroke-width="7" stroke-linecap="round" stroke-dasharray="34 30"/>
  <rect x="70" y="56" width="190" height="126" rx="12" fill="#fff" stroke="#d9e3df" stroke-width="4"/>
  <rect x="96" y="84" width="76" height="22" rx="4" fill="#24745d"/>
  <rect x="96" y="122" width="132" height="12" rx="6" fill="#d9e3df"/>
  <rect x="96" y="146" width="102" height="12" rx="6" fill="#d9e3df"/>
  <rect x="452" y="282" width="184" height="132" rx="12" fill="#fff" stroke="#d9e3df" stroke-width="4"/>
  <rect x="481" y="312" width="58" height="58" rx="8" fill="#285f9f"/>
  <path d="M496 340h28m-14-14v28" stroke="#fff" stroke-width="8" stroke-linecap="round"/>
  <rect x="553" y="318" width="52" height="12" rx="6" fill="#d9e3df"/>
  <rect x="553" y="342" width="42" height="12" rx="6" fill="#d9e3df"/>
  <g transform="translate(316 48)">
    <rect x="0" y="0" width="92" height="92" rx="12" fill="#f2c94c" transform="rotate(45 46 46)"/>
    <path d="M37 59c9-23 29-23 38 0M56 30v48" fill="none" stroke="#17211d" stroke-width="7" stroke-linecap="round"/>
  </g>
  <g transform="translate(488 116)">
    <path d="M60 0 120 104H0Z" fill="#fff" stroke="#c54f44" stroke-width="10" stroke-linejoin="round"/>
    <path d="M60 36v32M60 82v2" stroke="#17211d" stroke-width="9" stroke-linecap="round"/>
  </g>
  <circle cx="153" cy="395" r="42" fill="#24745d"/>
  <path d="M136 397l12 12 24-30" fill="none" stroke="#fff" stroke-width="9" stroke-linecap="round" stroke-linejoin="round"/>
  <circle cx="343" cy="238" r="34" fill="#fff" stroke="#24745d" stroke-width="8"/>
  <text x="343" y="249" text-anchor="middle" font-family="Arial, sans-serif" font-size="28" font-weight="800" fill="#24745d">5</text>
  <circle cx="584" cy="91" r="36" fill="#fff" stroke="#24745d" stroke-width="8"/>
  <text x="584" y="102" text-anchor="middle" font-family="Arial, sans-serif" font-size="28" font-weight="800" fill="#24745d">7</text>
</svg>
